<svg xmlns="http://www.w3.org/2000/svg" width="1800" height="1100" viewBox="0 0 1800 1100" role="img" aria-labelledby="title desc">
<title id="title">Thirty-six functional envelopes first serve three public-space duties</title><desc id="desc">Thirty-six conceptual functional envelopes arranged along a corridor and read through ordinary, proof, and recovery ground-level duties.</desc>
<defs>
<style>.sans{font-family:"Microsoft YaHei","Noto Sans CJK SC","Segoe UI",Arial,sans-serif}.kicker{font-size:17px;font-weight:900;letter-spacing:1.6px}.head{font-size:38px;font-weight:900}.sub{font-size:21px;font-weight:650}.label{font-size:27px;font-weight:900}.body{font-size:21px;font-weight:760}.small{font-size:18px;font-weight:720}.micro{font-size:16px;font-weight:650}.tiny{font-size:14px;font-weight:650}.number{font-size:42px;font-weight:950}</style>
<marker id="greenArrow" viewBox="0 0 16 16" refX="13" refY="8" markerWidth="8" markerHeight="8" orient="auto"><path d="M1 1 L15 8 L1 15 Z" fill="#087E68"/></marker>
<marker id="blueArrow" viewBox="0 0 16 16" refX="13" refY="8" markerWidth="8" markerHeight="8" orient="auto"><path d="M1 1 L15 8 L1 15 Z" fill="#167FA5"/></marker>
<marker id="coralArrow" viewBox="0 0 16 16" refX="13" refY="8" markerWidth="8" markerHeight="8" orient="auto"><path d="M1 1 L15 8 L1 15 Z" fill="#D75D45"/></marker>
</defs>
<rect width="1800" height="1100" fill="#F5F1E8"/><rect width="1800" height="142" fill="#102A43"/>
<text x="56" y="48" class="sans kicker" fill="#D6A21D" text-anchor="start">02 / FUNCTION + GROUND LEVEL / LAND-USE STRUCTURE</text>
<text x="56" y="104" class="sans head" fill="#FFFFFF" text-anchor="start">Thirty-six functional envelopes first serve three public-space duties</text>
<text x="1740" y="48" class="sans kicker" fill="#F8D56A" text-anchor="end">G0 · PROVISIONAL · NOT TO SCALE</text>
<text x="56" y="178" class="sans sub" fill="#526675" text-anchor="start">Unit colours show conceptual function families; continuous ordinary use, side proof, and exit/recovery determine how the ground level works.</text>
<rect x="50" y="220" width="1120" height="760" rx="22" fill="#FFFFFF" stroke="#C7D0CC" stroke-width="2"/><rect x="50" y="220" width="9" height="760" rx="5" fill="#167FA5"/>
<text x="82" y="260" class="sans kicker" fill="#167FA5" text-anchor="start">A / 36 FUNCTIONAL ENVELOPES</text>
<text x="82" y="298" class="sans label" fill="#102A43" text-anchor="start">A continuous functional band, not statutory parcels</text>
<rect x="92" y="360" width="75" height="88" rx="14" fill="#E8C56E" opacity=".78" stroke="#FFFFFF" stroke-width="4"/>
<text x="129" y="413" class="sans small" fill="#102A43" text-anchor="middle">01</text>
<rect x="176" y="360" width="75" height="88" rx="14" fill="#75A9BA" opacity=".78" stroke="#FFFFFF" stroke-width="4"/>
<text x="213" y="413" class="sans small" fill="#102A43" text-anchor="middle">02</text>
<rect x="260" y="360" width="75" height="88" rx="14" fill="#85BE9B" opacity=".78" stroke="#FFFFFF" stroke-width="4"/>
<text x="297" y="413" class="sans small" fill="#102A43" text-anchor="middle">03</text>
<rect x="344" y="360" width="75" height="88" rx="14" fill="#E8C56E" opacity=".78" stroke="#FFFFFF" stroke-width="4"/>
<text x="381" y="413" class="sans small" fill="#102A43" text-anchor="middle">04</text>
<rect x="428" y="360" width="75" height="88" rx="14" fill="#75A9BA" opacity=".78" stroke="#FFFFFF" stroke-width="4"/>
<text x="465" y="413" class="sans small" fill="#102A43" text-anchor="middle">05</text>
<rect x="512" y="360" width="75" height="88" rx="14" fill="#85BE9B" opacity=".78" stroke="#FFFFFF" stroke-width="4"/>
<text x="549" y="413" class="sans small" fill="#102A43" text-anchor="middle">06</text>
<rect x="596" y="360" width="75" height="88" rx="14" fill="#E8C56E" opacity=".78" stroke="#FFFFFF" stroke-width="4"/>
<text x="633" y="413" class="sans small" fill="#102A43" text-anchor="middle">07</text>
<rect x="680" y="360" width="75" height="88" rx="14" fill="#75A9BA" opacity=".78" stroke="#FFFFFF" stroke-width="4"/>
<text x="717" y="413" class="sans small" fill="#102A43" text-anchor="middle">08</text>
<rect x="764" y="360" width="75" height="88" rx="14" fill="#85BE9B" opacity=".78" stroke="#FFFFFF" stroke-width="4"/>
<text x="801" y="413" class="sans small" fill="#102A43" text-anchor="middle">09</text>
<rect x="848" y="360" width="75" height="88" rx="14" fill="#E8C56E" opacity=".78" stroke="#FFFFFF" stroke-width="4"/>
<text x="885" y="413" class="sans small" fill="#102A43" text-anchor="middle">10</text>
<rect x="932" y="360" width="75" height="88" rx="14" fill="#75A9BA" opacity=".78" stroke="#FFFFFF" stroke-width="4"/>
<text x="969" y="413" class="sans small" fill="#102A43" text-anchor="middle">11</text>
<rect x="1016" y="360" width="75" height="88" rx="14" fill="#85BE9B" opacity=".78" stroke="#FFFFFF" stroke-width="4"/>
<text x="1053" y="413" class="sans small" fill="#102A43" text-anchor="middle">12</text>
<rect x="103" y="492" width="75" height="88" rx="14" fill="#A7CAD7" opacity=".78" stroke="#FFFFFF" stroke-width="4"/>
<text x="140" y="545" class="sans small" fill="#102A43" text-anchor="middle">13</text>
<rect x="187" y="492" width="75" height="88" rx="14" fill="#96ADD0" opacity=".78" stroke="#FFFFFF" stroke-width="4"/>
<text x="224" y="545" class="sans small" fill="#102A43" text-anchor="middle">14</text>
<rect x="271" y="492" width="75" height="88" rx="14" fill="#E7E0CD" opacity=".78" stroke="#FFFFFF" stroke-width="4"/>
<text x="308" y="545" class="sans small" fill="#102A43" text-anchor="middle">15</text>
<rect x="355" y="492" width="75" height="88" rx="14" fill="#A7CAD7" opacity=".78" stroke="#FFFFFF" stroke-width="4"/>
<text x="392" y="545" class="sans small" fill="#102A43" text-anchor="middle">16</text>
<rect x="439" y="492" width="75" height="88" rx="14" fill="#96ADD0" opacity=".78" stroke="#FFFFFF" stroke-width="4"/>
<text x="476" y="545" class="sans small" fill="#102A43" text-anchor="middle">17</text>
<rect x="523" y="492" width="75" height="88" rx="14" fill="#E7E0CD" opacity=".78" stroke="#FFFFFF" stroke-width="4"/>
<text x="560" y="545" class="sans small" fill="#102A43" text-anchor="middle">18</text>
<rect x="607" y="492" width="75" height="88" rx="14" fill="#A7CAD7" opacity=".78" stroke="#FFFFFF" stroke-width="4"/>
<text x="644" y="545" class="sans small" fill="#102A43" text-anchor="middle">19</text>
<rect x="691" y="492" width="75" height="88" rx="14" fill="#96ADD0" opacity=".78" stroke="#FFFFFF" stroke-width="4"/>
<text x="728" y="545" class="sans small" fill="#102A43" text-anchor="middle">20</text>
<rect x="775" y="492" width="75" height="88" rx="14" fill="#E7E0CD" opacity=".78" stroke="#FFFFFF" stroke-width="4"/>
<text x="812" y="545" class="sans small" fill="#102A43" text-anchor="middle">21</text>
<rect x="859" y="492" width="75" height="88" rx="14" fill="#A7CAD7" opacity=".78" stroke="#FFFFFF" stroke-width="4"/>
<text x="896" y="545" class="sans small" fill="#102A43" text-anchor="middle">22</text>
<rect x="943" y="492" width="75" height="88" rx="14" fill="#96ADD0" opacity=".78" stroke="#FFFFFF" stroke-width="4"/>
<text x="980" y="545" class="sans small" fill="#102A43" text-anchor="middle">23</text>
<rect x="1027" y="492" width="75" height="88" rx="14" fill="#E7E0CD" opacity=".78" stroke="#FFFFFF" stroke-width="4"/>
<text x="1064" y="545" class="sans small" fill="#102A43" text-anchor="middle">24</text>
<rect x="114" y="624" width="75" height="88" rx="14" fill="#BE97B6" opacity=".78" stroke="#FFFFFF" stroke-width="4"/>
<text x="151" y="677" class="sans small" fill="#102A43" text-anchor="middle">25</text>
<rect x="198" y="624" width="75" height="88" rx="14" fill="#C4CBCA" opacity=".78" stroke="#FFFFFF" stroke-width="4"/>
<text x="235" y="677" class="sans small" fill="#102A43" text-anchor="middle">26</text>
<rect x="282" y="624" width="75" height="88" rx="14" fill="#D8A98F" opacity=".78" stroke="#FFFFFF" stroke-width="4"/>
<text x="319" y="677" class="sans small" fill="#102A43" text-anchor="middle">27</text>
<rect x="366" y="624" width="75" height="88" rx="14" fill="#BE97B6" opacity=".78" stroke="#FFFFFF" stroke-width="4"/>
<text x="403" y="677" class="sans small" fill="#102A43" text-anchor="middle">28</text>
<rect x="450" y="624" width="75" height="88" rx="14" fill="#C4CBCA" opacity=".78" stroke="#FFFFFF" stroke-width="4"/>
<text x="487" y="677" class="sans small" fill="#102A43" text-anchor="middle">29</text>
<rect x="534" y="624" width="75" height="88" rx="14" fill="#D8A98F" opacity=".78" stroke="#FFFFFF" stroke-width="4"/>
<text x="571" y="677" class="sans small" fill="#102A43" text-anchor="middle">30</text>
<rect x="618" y="624" width="75" height="88" rx="14" fill="#BE97B6" opacity=".78" stroke="#FFFFFF" stroke-width="4"/>
<text x="655" y="677" class="sans small" fill="#102A43" text-anchor="middle">31</text>
<rect x="702" y="624" width="75" height="88" rx="14" fill="#C4CBCA" opacity=".78" stroke="#FFFFFF" stroke-width="4"/>
<text x="739" y="677" class="sans small" fill="#102A43" text-anchor="middle">32</text>
<rect x="786" y="624" width="75" height="88" rx="14" fill="#D8A98F" opacity=".78" stroke="#FFFFFF" stroke-width="4"/>
<text x="823" y="677" class="sans small" fill="#102A43" text-anchor="middle">33</text>
<rect x="870" y="624" width="75" height="88" rx="14" fill="#BE97B6" opacity=".78" stroke="#FFFFFF" stroke-width="4"/>
<text x="907" y="677" class="sans small" fill="#102A43" text-anchor="middle">34</text>
<rect x="954" y="624" width="75" height="88" rx="14" fill="#C4CBCA" opacity=".78" stroke="#FFFFFF" stroke-width="4"/>
<text x="991" y="677" class="sans small" fill="#102A43" text-anchor="middle">35</text>
<rect x="1038" y="624" width="75" height="88" rx="14" fill="#D8A98F" opacity=".78" stroke="#FFFFFF" stroke-width="4"/>
<text x="1075" y="677" class="sans small" fill="#102A43" text-anchor="middle">36</text>
<path d="M98 752 C330 718 510 790 720 750 S980 718 1125 760" fill="none" stroke="#DFF1EA" stroke-width="54" stroke-linecap="round"/>
<path d="M98 752 C330 718 510 790 720 750 S980 718 1125 760" fill="none" stroke="#087E68" stroke-width="9" stroke-linecap="round" marker-end="url(#greenArrow)"/>
<text x="106" y="830" class="sans small" fill="#087E68" text-anchor="start"><tspan x="106" dy="0">Continuous ordinary ground level: entry, movement, rest, staffed help, and exit</tspan><tspan x="106" dy="29">cannot be cut by a technology overlay; proof can only sit beside it</tspan></text>
<text x="106" y="892" class="sans micro" fill="#526675" text-anchor="start"><tspan x="106" dy="0">36/36 means machine-recalculable concept units only</tspan><tspan x="106" dy="25">use, ownership, FAR, intensity, and development scale remain unconfirmed</tspan></text>
<rect x="1210" y="220" width="540" height="760" rx="22" fill="#FFFFFF" stroke="#C7D0CC" stroke-width="2"/><rect x="1210" y="220" width="9" height="760" rx="5" fill="#087E68"/>
<text x="1242" y="260" class="sans kicker" fill="#087E68" text-anchor="start">B / THREE GROUND-LEVEL DUTIES</text>
<text x="1242" y="298" class="sans label" fill="#102A43" text-anchor="start">One ground level, three duties</text>
<rect x="1242" y="350" width="470" height="154" rx="24" fill="#DFF1EA" stroke="#087E68" stroke-width="3"/>
<text x="1270" y="386" class="sans kicker" fill="#087E68" text-anchor="start">01 ORDINARY</text>
<text x="1270" y="426" class="sans label" fill="#087E68" text-anchor="start">ordinary continuity</text>
<text x="1270" y="460" class="sans micro" fill="#526675" text-anchor="start"><tspan x="1270" dy="0">screen-free wayfinding + staffed entry</tspan><tspan x="1270" dy="27">route + maintenance clearance first</tspan></text>
<rect x="1242" y="545" width="470" height="154" rx="24" fill="#DCEEF4" stroke="#167FA5" stroke-width="3"/>
<text x="1270" y="581" class="sans kicker" fill="#167FA5" text-anchor="start">02 OPTIONAL</text>
<text x="1270" y="621" class="sans label" fill="#167FA5" text-anchor="start">proof beside</text>
<text x="1270" y="655" class="sans micro" fill="#526675" text-anchor="start"><tspan x="1270" dy="0">voluntary · announced · bounded</tspan><tspan x="1270" dy="27">no loss of movement or quiet rest</tspan></text>
<rect x="1242" y="740" width="470" height="154" rx="24" fill="#F8E4DE" stroke="#D75D45" stroke-width="3"/>
<text x="1270" y="776" class="sans kicker" fill="#D75D45" text-anchor="start">03 EXIT / RESTORE</text>
<text x="1270" y="816" class="sans label" fill="#D75D45" text-anchor="start">exit + restore</text>
<text x="1270" y="850" class="sans micro" fill="#526675" text-anchor="start"><tspan x="1270" dy="0">physical stop + human takeover</tspan><tspan x="1270" dy="27">restore ordinary use; no automatic restart</tspan></text>
<rect x="90" y="934" width="22" height="22" rx="5" fill="#E8C56E"/>
<text x="122" y="951" class="sans tiny" fill="#526675" text-anchor="start">culture</text>
<rect x="278" y="934" width="22" height="22" rx="5" fill="#D8A98F"/>
<text x="310" y="951" class="sans tiny" fill="#526675" text-anchor="start">community</text>
<rect x="466" y="934" width="22" height="22" rx="5" fill="#A7CAD7"/>
<text x="498" y="951" class="sans tiny" fill="#526675" text-anchor="start">R&amp;D</text>
<rect x="654" y="934" width="22" height="22" rx="5" fill="#75A9BA"/>
<text x="686" y="951" class="sans tiny" fill="#526675" text-anchor="start">service</text>
<rect x="842" y="934" width="22" height="22" rx="5" fill="#BE97B6"/>
<text x="874" y="951" class="sans tiny" fill="#526675" text-anchor="start">education</text>
<rect x="90" y="962" width="22" height="22" rx="5" fill="#96ADD0"/>
<text x="122" y="979" class="sans tiny" fill="#526675" text-anchor="start">innovation</text>
<rect x="278" y="962" width="22" height="22" rx="5" fill="#85BE9B"/>
<text x="310" y="979" class="sans tiny" fill="#526675" text-anchor="start">park</text>
<rect x="466" y="962" width="22" height="22" rx="5" fill="#C4CBCA"/>
<text x="498" y="979" class="sans tiny" fill="#526675" text-anchor="start">mixed</text>
<rect x="654" y="962" width="22" height="22" rx="5" fill="#E7E0CD"/>
<text x="686" y="979" class="sans tiny" fill="#526675" text-anchor="start">reserve</text>
<rect x="50" y="1018" width="1700" height="48" rx="16" fill="#102A43"/>
<text x="900" y="1049" class="sans micro" fill="#FFFFFF" text-anchor="middle">G0 functional envelopes · 36 concept units frozen · creates no statutory use, precise area, FAR, building height, demolition decision, or implementation conclusion</text>
</svg>
