<svg xmlns="http://www.w3.org/2000/svg" width="1800" height="1100" viewBox="0 0 1800 1100" role="img" aria-labelledby="title desc">
<title id="title">One continuous civic track, three switchyards, two supply wings</title><desc id="desc">Conceptual corridor relay with continuous ordinary use, intermittent proof, three distinct switchyards, two supply wings, and a failure siding.</desc>
<defs>
<style>.sans{font-family:"Microsoft YaHei","Noto Sans CJK SC","Segoe UI",Arial,sans-serif}.kicker{font-size:17px;font-weight:900;letter-spacing:1.6px}.head{font-size:38px;font-weight:900}.sub{font-size:21px;font-weight:650}.label{font-size:27px;font-weight:900}.body{font-size:21px;font-weight:760}.small{font-size:18px;font-weight:720}.micro{font-size:16px;font-weight:650}.tiny{font-size:14px;font-weight:650}.number{font-size:42px;font-weight:950}</style>
<marker id="greenArrow" viewBox="0 0 16 16" refX="13" refY="8" markerWidth="8" markerHeight="8" orient="auto"><path d="M1 1 L15 8 L1 15 Z" fill="#087E68"/></marker>
<marker id="blueArrow" viewBox="0 0 16 16" refX="13" refY="8" markerWidth="8" markerHeight="8" orient="auto"><path d="M1 1 L15 8 L1 15 Z" fill="#167FA5"/></marker>
<marker id="coralArrow" viewBox="0 0 16 16" refX="13" refY="8" markerWidth="8" markerHeight="8" orient="auto"><path d="M1 1 L15 8 L1 15 Z" fill="#D75D45"/></marker>
</defs>
<rect width="1800" height="1100" fill="#F5F1E8"/><rect width="1800" height="142" fill="#102A43"/>
<text x="56" y="48" class="sans kicker" fill="#D6A21D" text-anchor="start">01 / SPATIAL RELAY / SITE OVERVIEW</text>
<text x="56" y="104" class="sans head" fill="#FFFFFF" text-anchor="start">One continuous civic track, three switchyards, two supply wings</text>
<text x="1740" y="48" class="sans kicker" fill="#F8D56A" text-anchor="end">G0 · PROVISIONAL · NOT TO SCALE</text>
<text x="56" y="178" class="sans sub" fill="#526675" text-anchor="start">The conceptual north–south relay shows relationships only; the dashed container is no official redline and nodes are no coordinate anchors.</text>
<rect x="50" y="220" width="1210" height="760" rx="22" fill="#FFFFFF" stroke="#C7D0CC" stroke-width="2"/><rect x="50" y="220" width="9" height="760" rx="5" fill="#087E68"/>
<text x="82" y="260" class="sans kicker" fill="#087E68" text-anchor="start">A / CONCEPTUAL RELAY</text>
<text x="82" y="298" class="sans label" fill="#102A43" text-anchor="start">Conceptual north–south relay</text>
<rect x="105" y="330" width="1080" height="570" rx="78" fill="#FAFCFA" stroke="#D75D45" stroke-width="3" stroke-dasharray="18 14"/>
<text x="1160" y="365" class="sans tiny" fill="#D75D45" text-anchor="end">PROV-SITE-001</text>
<path d="M465 385 C430 490 488 578 450 690 S485 825 458 865" fill="none" stroke="#DFF1EA" stroke-width="74" stroke-linecap="round"/>
<path d="M465 385 C430 490 488 578 450 690 S485 825 458 865" fill="none" stroke="#087E68" stroke-width="11" stroke-linecap="round" marker-end="url(#greenArrow)"/>
<path d="M800 410 C770 475 823 530 787 595 M805 655 C770 720 822 766 790 830" fill="none" stroke="#167FA5" stroke-width="9" stroke-linecap="round" stroke-dasharray="18 14" marker-end="url(#blueArrow)"/>
<path d="M790 595 C890 620 880 690 920 722" fill="none" stroke="#D75D45" stroke-width="7" stroke-dasharray="10 12" marker-end="url(#coralArrow)"/>
<circle cx="445" cy="425" r="42" fill="#FFFFFF" stroke="#167FA5" stroke-width="8"/>
<circle cx="445" cy="425" r="13" fill="#167FA5"/>
<text x="525" y="411" class="sans kicker" fill="#167FA5" text-anchor="start">01 VERIFY</text>
<text x="525" y="443" class="sans body" fill="#102A43" text-anchor="start">ZHONGZHIYUAN</text>
<text x="525" y="472" class="sans micro" fill="#526675" text-anchor="start">parallel isolated proof court</text>
<circle cx="455" cy="610" r="42" fill="#FFFFFF" stroke="#B77A13" stroke-width="8"/>
<circle cx="455" cy="610" r="13" fill="#B77A13"/>
<text x="525" y="596" class="sans kicker" fill="#B77A13" text-anchor="start">02 CO-CREATE</text>
<text x="525" y="628" class="sans body" fill="#102A43" text-anchor="start">ORIGIN COMMUNITY</text>
<text x="525" y="657" class="sans micro" fill="#526675" text-anchor="start">one street · two courts · four withdrawals</text>
<circle cx="458" cy="805" r="42" fill="#FFFFFF" stroke="#D75D45" stroke-width="8"/>
<circle cx="458" cy="805" r="13" fill="#D75D45"/>
<text x="525" y="791" class="sans kicker" fill="#D75D45" text-anchor="start">03 PUBLISH</text>
<text x="525" y="823" class="sans body" fill="#102A43" text-anchor="start">DAZHONGSI</text>
<text x="525" y="852" class="sans micro" fill="#526675" text-anchor="start">four-way commute · off-route service</text>
<path d="M1080 520 L840 555" stroke="#B77A13" stroke-width="7" stroke-dasharray="15 11" marker-end="url(#blueArrow)"/>
<text x="905" y="465" class="sans small" fill="#B77A13" text-anchor="start">Xiaoyue River scenario wing</text>
<text x="905" y="493" class="sans micro" fill="#526675" text-anchor="start">problems + experience feedback</text>
<path d="M1080 735 L840 688" stroke="#167FA5" stroke-width="7" stroke-dasharray="15 11" marker-end="url(#blueArrow)"/>
<text x="900" y="790" class="sans small" fill="#167FA5" text-anchor="start">Zhongguancun service wing</text>
<text x="900" y="818" class="sans micro" fill="#526675" text-anchor="start">IP, compliance + talent advice</text>
<rect x="720" y="817" width="365" height="64" rx="18" fill="#F8E4DE" stroke="#D75D45" stroke-width="3"/>
<text x="902" y="857" class="sans small" fill="#D75D45" text-anchor="middle">Failure siding: stop proof, keep ordinary life</text>
<rect x="1300" y="220" width="450" height="760" rx="22" fill="#FFFFFF" stroke="#C7D0CC" stroke-width="2"/><rect x="1300" y="220" width="9" height="760" rx="5" fill="#102A43"/>
<text x="1332" y="260" class="sans kicker" fill="#167FA5" text-anchor="start">B / READ THE LINES</text>
<text x="1332" y="298" class="sans label" fill="#102A43" text-anchor="start">Read lines before nodes</text>
<line x1="1342" y1="365" x2="1450" y2="365" stroke="#087E68" stroke-width="10" stroke-linecap="round"/>
<text x="1480" y="372" class="sans body" fill="#087E68" text-anchor="start">Continuous civic track</text>
<line x1="1342" y1="435" x2="1450" y2="435" stroke="#167FA5" stroke-width="8" stroke-dasharray="18 13"/>
<text x="1480" y="442" class="sans body" fill="#167FA5" text-anchor="start">Intermittent proof track</text>
<line x1="1342" y1="505" x2="1450" y2="505" stroke="#D75D45" stroke-width="7" stroke-dasharray="10 11"/>
<text x="1480" y="512" class="sans body" fill="#D75D45" text-anchor="start">Failure siding</text>
<rect x="1334" y="560" width="382" height="145" rx="20" fill="#DFF1EA"/>
<text x="1360" y="596" class="sans body" fill="#087E68" text-anchor="start">Ordinary state always stands</text>
<text x="1360" y="630" class="sans micro" fill="#526675" text-anchor="start"><tspan x="1360" dy="0">enter · commute · rest · get help · leave</tspan><tspan x="1360" dy="28">no registration, QR, or AI required</tspan></text>
<rect x="1334" y="735" width="382" height="174" rx="20" fill="#FFF4D9"/>
<text x="1360" y="774" class="sans body" fill="#B77A13" text-anchor="start">Truth boundary</text>
<text x="1360" y="808" class="sans micro" fill="#526675" text-anchor="start"><tspan x="1360" dy="0">not an existing plan, road, or station location</tspan><tspan x="1360" dy="28">not approval order or construction alignment</tspan><tspan x="1360" dy="28">recalculate fully when official inputs arrive</tspan></text>
<rect x="50" y="1018" width="1700" height="48" rx="16" fill="#102A43"/>
<text x="900" y="1049" class="sans micro" fill="#FFFFFF" text-anchor="middle">G0 relationship concept · provisional geometry · north–south is reading order only · proves no redline, coordinate, distance, station anchor, or built condition</text>
</svg>
