<svg xmlns="http://www.w3.org/2000/svg" viewBox="0 0 1600 1200" font-family="'PingFang SC','Microsoft YaHei','Helvetica Neue',Arial,sans-serif">
  <defs>
    <linearGradient id="bg4" x1="0" y1="0" x2="1" y2="1">
      <stop offset="0%" stop-color="#f4f7fa"/>
      <stop offset="100%" stop-color="#e8eef4"/>
    </linearGradient>
    <linearGradient id="parkG4" x1="0" y1="0" x2="0" y2="1">
      <stop offset="0%" stop-color="#c8e6c9"/>
      <stop offset="100%" stop-color="#a5d6a7"/>
    </linearGradient>
    <filter id="sh4">
      <feGaussianBlur in="SourceAlpha" stdDeviation="3"/>
      <feOffset dx="0" dy="2"/>
      <feComponentTransfer><feFuncA type="linear" slope="0.15"/></feComponentTransfer>
      <feMerge><feMergeNode/><feMergeNode in="SourceGraphic"/></feMerge>
    </filter>
    <marker id="arr4" markerWidth="8" markerHeight="8" refX="6" refY="4" orient="auto">
      <path d="M0,0 L8,4 L0,8 Z" fill="#1B3A6B"/>
    </marker>
  </defs>

  <rect width="1600" height="1200" fill="url(#bg4)"/>

  <!-- Title -->
  <rect x="0" y="0" width="1600" height="80" fill="#1B3A6B"/>
  <text x="40" y="38" fill="#fff" font-size="24" font-weight="700">FIG. 04 Mobility &amp; Blue-Green Public Space Composite System</text>
  <text x="40" y="62" fill="#C07A3A" font-size="14" font-weight="600" letter-spacing="0.05em">MOBILITY &amp; BLUE-GREEN PUBLIC SPACE COMPOSITE SYSTEM</text>
  <rect x="0" y="80" width="1600" height="4" fill="#C07A3A"/>

  <!-- ===== LEFT: Map ===== -->
  <g transform="translate(40, 110)">
    <rect x="0" y="0" width="880" height="960" fill="#fff" stroke="#d6e0ea" rx="8" filter="url(#sh4)"/>

    <!-- Grid -->
    <g stroke="#eef2f6" stroke-width="0.5">
      <line x1="0" y1="120" x2="880" y2="120"/>
      <line x1="0" y1="240" x2="880" y2="240"/>
      <line x1="0" y1="360" x2="880" y2="360"/>
      <line x1="0" y1="480" x2="880" y2="480"/>
      <line x1="0" y1="600" x2="880" y2="600"/>
      <line x1="0" y1="720" x2="880" y2="720"/>
      <line x1="0" y1="840" x2="880" y2="840"/>
      <line x1="110" y1="0" x2="110" y2="960"/>
      <line x1="220" y1="0" x2="220" y2="960"/>
      <line x1="330" y1="0" x2="330" y2="960"/>
      <line x1="440" y1="0" x2="440" y2="960"/>
      <line x1="550" y1="0" x2="550" y2="960"/>
      <line x1="660" y1="0" x2="660" y2="960"/>
      <line x1="770" y1="0" x2="770" y2="960"/>
    </g>

    <!-- North arrow -->
    <g transform="translate(820, 40)">
      <polygon points="0,-18 8,8 0,2 -8,8" fill="#1B3A6B"/>
      <text x="0" y="28" text-anchor="middle" fill="#1B3A6B" font-size="12" font-weight="700">N</text>
    </g>

    <!-- Scale bar -->
    <g transform="translate(40, 910)">
      <rect x="0" y="0" width="50" height="6" fill="#1B3A6B"/>
      <rect x="50" y="0" width="50" height="6" fill="#fff" stroke="#1B3A6B" stroke-width="1"/>
      <text x="0" y="22" fill="#5a6a7a" font-size="11">0</text>
      <text x="45" y="22" fill="#5a6a7a" font-size="11">500m</text>
      <text x="90" y="22" fill="#5a6a7a" font-size="11">1km</text>
    </g>

    <!-- Park corridor -->
    <path d="M 340,40 L 540,40 L 560,200 L 570,400 L 560,600 L 550,800 L 540,880 L 360,880 L 350,800 L 340,600 L 330,400 L 335,200 L 340,40 Z"
          fill="url(#parkG4)" opacity="0.5"/>

    <!-- Railway -->
    <line x1="440" y1="40" x2="440" y2="880" stroke="#1a1a1a" stroke-width="4"/>
    <text x="455" y="100" fill="#333" font-size="10" font-weight="600">Jingzhang Railway</text>

    <!-- Qinghe River -->
    <path d="M 80,150 C 200,130 320,170 440,140 C 560,110 680,150 800,130"
          fill="none" stroke="#29b6f6" stroke-width="4" opacity="0.7"/>
    <text x="100" y="125" fill="#0288d1" font-size="11" font-weight="600">Qinghe River (6.0km)</text>

    <!-- Xiaoyue River -->
    <path d="M 780,500 C 700,480 620,510 540,490 C 460,470 380,500 300,480"
          fill="none" stroke="#29b6f6" stroke-width="3" opacity="0.7"/>
    <text x="650" y="470" fill="#0288d1" font-size="11" font-weight="600">Xiaoyue River (6.0km)</text>

    <!-- Slow mobility loop (日-shaped) -->
    <path d="M 180,100 L 700,100 L 720,280 L 740,480 L 720,680 L 700,860 L 180,860 L 160,680 L 140,480 L 160,280 L 180,100 Z"
          fill="none" stroke="#1B3A6B" stroke-width="2.5" stroke-dasharray="8 4" opacity="0.5"/>
    <path d="M 440,100 L 440,860" fill="none" stroke="#1B3A6B" stroke-width="1.5" stroke-dasharray="4 2" opacity="0.3"/>
    <text x="490" y="90" fill="#1B3A6B" font-size="11" font-weight="600">日-shaped Slow-Mobility Loop</text>
    <text x="490" y="104" fill="#8a9aaa" font-size="9">日-shaped Slow-Mobility Loop</text>

    <!-- Four-tier road system -->
    <!-- Urban arterial (thick) -->
    <line x1="80" y1="300" x2="800" y2="300" stroke="#e57373" stroke-width="3" opacity="0.5"/>
    <text x="700" y="295" fill="#e57373" font-size="9" font-weight="600">Urban Arterial</text>
    <!-- Secondary road -->
    <line x1="100" y1="650" x2="780" y2="650" stroke="#ffb74d" stroke-width="2.5" opacity="0.5"/>
    <text x="700" y="645" fill="#ffb74d" font-size="9" font-weight="600">Secondary Road</text>
    <!-- Branch roads -->
    <g stroke="#90caf9" stroke-width="1.5" opacity="0.3">
      <line x1="120" y1="200" x2="760" y2="200"/>
      <line x1="120" y1="400" x2="760" y2="400"/>
      <line x1="120" y1="550" x2="760" y2="550"/>
      <line x1="120" y1="750" x2="760" y2="750"/>
    </g>
    <!-- Slow traffic lane -->
    <line x1="350" y1="100" x2="550" y2="100" stroke="#4caf50" stroke-width="2" stroke-dasharray="2 2" opacity="0.5"/>

    <!-- Rail stations -->
    <g>
      <circle cx="440" cy="110" r="8" fill="#C07A3A" stroke="#fff" stroke-width="2"/>
      <text x="460" y="114" fill="#333" font-size="11" font-weight="600">Qinghe Stn</text>
      <text x="460" y="126" fill="#8a9aaa" font-size="9">TOD Node</text>
    </g>
    <g>
      <circle cx="440" cy="430" r="8" fill="#C07A3A" stroke="#fff" stroke-width="2"/>
      <text x="460" y="434" fill="#333" font-size="11" font-weight="600">Wudaokou</text>
      <text x="460" y="446" fill="#8a9aaa" font-size="9">TOD Node</text>
    </g>
    <g>
      <circle cx="440" cy="600" r="8" fill="#C07A3A" stroke="#fff" stroke-width="2"/>
      <text x="460" y="604" fill="#333" font-size="11" font-weight="600">Zhichunli</text>
      <text x="460" y="616" fill="#8a9aaa" font-size="9">TOD Node</text>
    </g>
    <g>
      <circle cx="440" cy="780" r="8" fill="#C07A3A" stroke="#fff" stroke-width="2"/>
      <text x="460" y="784" fill="#333" font-size="11" font-weight="600">Dazhongsi Stn</text>
      <text x="460" y="796" fill="#8a9aaa" font-size="9">TOD Node</text>
    </g>
    <g>
      <circle cx="440" cy="850" r="7" fill="#C07A3A" stroke="#fff" stroke-width="2"/>
      <text x="460" y="854" fill="#333" font-size="11" font-weight="600">Beijing N.</text>
    </g>

    <!-- Key areas overlays -->
    <ellipse cx="440" cy="200" rx="140" ry="80" fill="#fff3e0" stroke="#C07A3A" stroke-width="1.5" opacity="0.4"/>
    <text x="440" y="180" text-anchor="middle" fill="#C07A3A" font-size="11" font-weight="600">Zhongzhiyuan</text>
    <ellipse cx="440" cy="470" rx="110" ry="70" fill="#e3f2fd" stroke="#1B3A6B" stroke-width="1.5" opacity="0.4"/>
    <text x="440" y="455" text-anchor="middle" fill="#1B3A6B" font-size="11" font-weight="600">AI Origin</text>
    <ellipse cx="440" cy="730" rx="90" ry="60" fill="#e8f5e9" stroke="#2e7d32" stroke-width="1.5" opacity="0.4"/>
    <text x="440" y="715" text-anchor="middle" fill="#2e7d32" font-size="11" font-weight="600">Dazhongsi</text>

    <!-- Map label -->
    <text x="440" y="30" text-anchor="middle" fill="#1B3A6B" font-size="14" font-weight="700">Mobility &amp; Blue-Green System Map</text>
    <text x="440" y="46" text-anchor="middle" fill="#8a9aaa" font-size="11">Mobility &amp; Blue-Green System Map</text>
  </g>

  <!-- ===== RIGHT: Legend & Details ===== -->
  <g transform="translate(960, 110)">
    <!-- Legend -->
    <rect x="0" y="0" width="600" height="200" fill="#fff" stroke="#d6e0ea" rx="8" filter="url(#sh4)"/>
    <rect x="0" y="0" width="600" height="36" fill="#1B3A6B" rx="8"/>
    <rect x="0" y="28" width="600" height="8" fill="#1B3A6B"/>
    <text x="20" y="24" fill="#fff" font-size="14" font-weight="700">Legend</text>

    <g transform="translate(20, 56)">
      <rect x="0" y="-6" width="30" height="12" fill="url(#parkG4)" opacity="0.5"/>
      <text x="40" y="4" fill="#333" font-size="12">Park Corridor</text>
    </g>
    <g transform="translate(20, 80)">
      <line x1="0" y1="0" x2="30" y2="0" stroke="#1a1a1a" stroke-width="4"/>
      <text x="40" y="4" fill="#333" font-size="12">Jingzhang Railway</text>
    </g>
    <g transform="translate(20, 104)">
      <path d="M0,0 C10,-3 20,3 30,0" fill="none" stroke="#29b6f6" stroke-width="4"/>
      <text x="40" y="4" fill="#333" font-size="12">Rivers</text>
    </g>
    <g transform="translate(20, 128)">
      <line x1="0" y1="0" x2="30" y2="0" stroke="#1B3A6B" stroke-width="2.5" stroke-dasharray="8 4"/>
      <text x="40" y="4" fill="#333" font-size="12">日-shaped Slow-Mobility Loop</text>
    </g>
    <g transform="translate(20, 152)">
      <circle cx="15" cy="0" r="6" fill="#C07A3A" stroke="#fff" stroke-width="2"/>
      <text x="40" y="4" fill="#333" font-size="12">Rail Station (TOD)</text>
    </g>
    <g transform="translate(310, 56)">
      <line x1="0" y1="0" x2="30" y2="0" stroke="#e57373" stroke-width="3" opacity="0.5"/>
      <text x="40" y="4" fill="#333" font-size="12">Urban Arterial</text>
    </g>
    <g transform="translate(310, 80)">
      <line x1="0" y1="0" x2="30" y2="0" stroke="#ffb74d" stroke-width="2.5" opacity="0.5"/>
      <text x="40" y="4" fill="#333" font-size="12">Secondary Road</text>
    </g>
    <g transform="translate(310, 104)">
      <line x1="0" y1="0" x2="30" y2="0" stroke="#90caf9" stroke-width="1.5" opacity="0.5"/>
      <text x="40" y="4" fill="#333" font-size="12">Branch Road</text>
    </g>
    <g transform="translate(310, 128)">
      <line x1="0" y1="0" x2="30" y2="0" stroke="#4caf50" stroke-width="2" stroke-dasharray="2 2"/>
      <text x="40" y="4" fill="#333" font-size="12">Pedestrian-Priority Street</text>
    </g>
    <g transform="translate(310, 152)">
      <rect x="0" y="-6" width="30" height="12" fill="#fff3e0" stroke="#C07A3A" stroke-width="1" opacity="0.4"/>
      <text x="40" y="4" fill="#333" font-size="12">Key Area</text>
    </g>

    <!-- Blue-Green System -->
    <rect x="0" y="220" width="600" height="200" fill="#fff" stroke="#d6e0ea" rx="8" filter="url(#sh4)"/>
    <rect x="0" y="220" width="600" height="36" fill="#2e7d32" rx="8"/>
    <rect x="0" y="248" width="600" height="8" fill="#2e7d32"/>
    <text x="20" y="244" fill="#fff" font-size="14" font-weight="700">Blue-Green Public Space System</text>

    <g transform="translate(20, 276)">
      <rect x="0" y="0" width="560" height="36" fill="#e8f5e9" rx="6"/>
      <circle cx="14" cy="18" r="6" fill="#2e7d32"/>
      <text x="28" y="22" fill="#333" font-size="12" font-weight="600">Jingzhang Heritage Park Corridor</text>
      <text x="180" y="22" fill="#5a6a7a" font-size="11">N-S axis ~8km × ~200m</text>
      <text x="400" y="22" fill="#2e7d32" font-size="11" font-weight="600">Heritage Park Corridor</text>
    </g>
    <g transform="translate(20, 320)">
      <rect x="0" y="0" width="560" height="36" fill="#e3f2fd" rx="6"/>
      <circle cx="14" cy="18" r="6" fill="#29b6f6"/>
      <text x="28" y="22" fill="#333" font-size="12" font-weight="600">Qinghe Waterfront Corridor</text>
      <text x="180" y="22" fill="#5a6a7a" font-size="11">North 6.0 km eco-corridor</text>
      <text x="400" y="22" fill="#29b6f6" font-size="11" font-weight="600">Qinghe Waterfront</text>
    </g>
    <g transform="translate(20, 364)">
      <rect x="0" y="0" width="560" height="36" fill="#e3f2fd" rx="6"/>
      <circle cx="14" cy="18" r="6" fill="#29b6f6"/>
      <text x="28" y="22" fill="#333" font-size="12" font-weight="600">Xiaoyue River Corridor</text>
      <text x="180" y="22" fill="#5a6a7a" font-size="11">Central 6.0 km green corridor</text>
      <text x="400" y="22" fill="#29b6f6" font-size="11" font-weight="600">Xiaoyue River Corridor</text>
    </g>

    <!-- Mobility System -->
    <rect x="0" y="440" width="600" height="240" fill="#fff" stroke="#d6e0ea" rx="8" filter="url(#sh4)"/>
    <rect x="0" y="440" width="600" height="36" fill="#1B3A6B" rx="8"/>
    <rect x="0" y="468" width="600" height="8" fill="#1B3A6B"/>
    <text x="20" y="464" fill="#fff" font-size="14" font-weight="700">Slow-Mobility System</text>

    <g transform="translate(20, 496)">
      <rect x="0" y="0" width="560" height="36" fill="#e8f0f6" rx="6"/>
      <circle cx="14" cy="18" r="6" fill="#1B3A6B"/>
      <text x="28" y="22" fill="#333" font-size="12" font-weight="600">日-shaped Slow-Mobility Loop</text>
      <text x="200" y="22" fill="#5a6a7a" font-size="11">N-S loop + E-W connection</text>
      <text x="400" y="22" fill="#1B3A6B" font-size="11" font-weight="600">日-shaped Loop</text>
    </g>
    <g transform="translate(20, 540)">
      <rect x="0" y="0" width="560" height="36" fill="#fdf3eb" rx="6"/>
      <circle cx="14" cy="18" r="6" fill="#C07A3A"/>
      <text x="28" y="22" fill="#333" font-size="12" font-weight="600">Rail Station TOD</text>
      <text x="200" y="22" fill="#5a6a7a" font-size="11">5+ station integrated development</text>
      <text x="400" y="22" fill="#C07A3A" font-size="11" font-weight="600">5+ Station TOD Nodes</text>
    </g>
    <g transform="translate(20, 584)">
      <rect x="0" y="0" width="560" height="36" fill="#eaf6ee" rx="6"/>
      <circle cx="14" cy="18" r="6" fill="#4caf50"/>
      <text x="28" y="22" fill="#333" font-size="12" font-weight="600">Pedestrian-Priority Street</text>
      <text x="200" y="22" fill="#5a6a7a" font-size="11">Full walkway + bike coverage</text>
      <text x="400" y="22" fill="#4caf50" font-size="11" font-weight="600">Pedestrian Priority</text>
    </g>
    <g transform="translate(20, 628)">
      <rect x="0" y="0" width="560" height="36" fill="#fff3e0" rx="6"/>
      <circle cx="14" cy="18" r="6" fill="#e57373"/>
      <text x="28" y="22" fill="#333" font-size="12" font-weight="600">4-Tier Road Classification</text>
      <text x="200" y="22" fill="#5a6a7a" font-size="11">Arterial → Secondary → Branch → Pedestrian</text>
      <text x="400" y="22" fill="#e57373" font-size="11" font-weight="600">4-Tier Road System</text>
    </g>

    <!-- Rail Station Details -->
    <rect x="0" y="700" width="600" height="200" fill="#fff" stroke="#d6e0ea" rx="8" filter="url(#sh4)"/>
    <rect x="0" y="700" width="600" height="36" fill="#C07A3A" rx="8"/>
    <rect x="0" y="728" width="600" height="8" fill="#C07A3A"/>
    <text x="20" y="724" fill="#fff" font-size="14" font-weight="700">Rail Stations</text>

    <g transform="translate(20, 756)">
      <circle cx="8" cy="8" r="5" fill="#C07A3A"/>
      <text x="22" y="12" fill="#333" font-size="11">Qinghe Stn — HSR + metro transfer hub</text>
    </g>
    <g transform="translate(20, 780)">
      <circle cx="8" cy="8" r="5" fill="#C07A3A"/>
      <text x="22" y="12" fill="#333" font-size="11">Wudaokou — University gateway + maker district</text>
    </g>
    <g transform="translate(20, 804)">
      <circle cx="8" cy="8" r="5" fill="#C07A3A"/>
      <text x="22" y="12" fill="#333" font-size="11">Zhichunli — Tech services + commerce</text>
    </g>
    <g transform="translate(20, 828)">
      <circle cx="8" cy="8" r="5" fill="#C07A3A"/>
      <text x="22" y="12" fill="#333" font-size="11">Dazhongsi Stn — Industry HQ + intl. exchange</text>
    </g>
    <g transform="translate(20, 852)">
      <circle cx="8" cy="8" r="5" fill="#C07A3A"/>
      <text x="22" y="12" fill="#333" font-size="11">Beijing N. — Regional transit hub</text>
    </g>
    <g transform="translate(20, 876)">
      <text x="0" y="0" fill="#8a9aaa" font-size="10">All stations adopt TOD model with full slow-mobility coverage</text>
    </g>
  </g>

  <!-- Footer -->
  <rect x="0" y="1140" width="1600" height="60" fill="#1B3A6B"/>
  <text x="40" y="1165" fill="#a0b0c0" font-size="11">AI Spine · Jingzhang | Source: Mobility &amp; blue-green system analysis</text>
  <text x="40" y="1182" fill="#708090" font-size="10">data: geometry/roads.geojson | geometry/green_space.geojson | 1605 road segments | OSM 2026-08-20</text>
  <text x="1560" y="1165" text-anchor="end" fill="#a0b0c0" font-size="11">FIG. 04 / 05</text>
</svg>